Patient4_TMGait_0pt6_01_right_36_EMG.mot
version=1
nRows=13
nColumns=33
inDegrees=no
endheader
time	1LAddLong	2LGlutMax	3LGlutMed	4LIliopsoas	5LSemiMemb	6LBicFemLong	7LRecFem	8LVastMed	9LVastLat	10LGasMed	11LTibAnt	12lTibPost	13LPeroneusLong	14LSol	15LExtDigLong	16LFlexDigLong	17RAddLong	18RGlutMax	19RGlutMed	20RIliopsoas	21RSemiMemb	22RBicFemLong	23RRecFem	24RVastMed	25RVastLat	26RGasMed	27RTibAnt	28RTibPost	29RPeroneusLong	30RSol	31RExtDigLong	32RFlexDigLong
44.52	-0.006561	0.019989	-0.001373	-0.011597	-0.043335	0.092316	0.44571	0.004425	0.064697	0.034943	-0.010223	0.009766	0.039215	-0.036163	0.27512	0.020447	0.06012	-0.028839	-0.085602	-0.029144	-0.12528	0.024872	-0.021057	-0.045471	0.019379	-0.000916	0.43518	-0.005798	-0.061493	-0.056915	0.004272	-0.002899
44.521	-0.011139	0.004272	-0.000763	-0.005493	-0.068665	0.001526	0.38757	0.011292	0.026093	0.020905	0.005341	0.005035	0.068817	-0.095673	0.22247	0.011749	0.034485	-0.02594	-0.076904	-0.08316	-0.18799	0.012207	-0.011749	-0.09079	0.004883	-0.009766	0.082703	-0.002747	-0.013428	-0.051422	0.001373	0.000153
44.522	-0.005493	-0.007324	-0.021362	-0.000458	-0.097198	-0.051575	0.37811	-0.002899	0.046539	-0.016632	0.14328	0.00412	0.075378	-0.11383	0.16144	0.013123	0.016937	-0.001221	0.10498	-0.045776	-0.21942	0.005035	0.018005	-0.11322	-0.005951	-0.004578	-0.13321	-0.006256	0.077362	-0.063171	-0.000305	-0.00412
44.523	-0.005493	0.009613	-0.048828	-0.001221	-0.011902	-0.044861	0.38315	0.003052	0.035858	-0.027313	0.29022	0.005341	0.037537	-0.043182	0.15396	0.015259	-0.001831	0.03418	0.12344	-0.064392	0.041809	0.121	0.045319	-0.1062	0.014648	-0.01358	-0.20721	-0.005035	-0.018311	-0.016327	-0.002899	-0.006409
44.524	0.005341	0.020447	-0.047607	0.00885	0.099335	-0.12634	0.37506	-0.000763	0.030975	-0.065002	0.3479	0.001678	0.036011	0.056458	0.10132	0.002136	-0.053864	-0.049896	0.000916	-0.078735	0.23102	0.14236	-0.018616	-0.033264	0.015869	-0.016174	-0.084076	-0.008392	-0.26215	0.00885	0.001221	-0.009003
44.525	0.002594	0.02182	-0.06958	0.0383	0.074158	-0.1741	0.40359	0.002289	0.064392	-0.11353	0.1564	0.004272	0.077362	0.080414	0.046997	0.006256	-0.051117	-0.039673	-0.15213	-0.15396	0.03006	0.017242	-0.033875	0.047913	0.036469	-0.013885	0.19806	-0.00824	-0.2272	-0.011292	0	-0.00473
44.526	0.011902	0.026093	-0.006866	0.031128	0.074768	-0.1442	0.39032	0.006256	0.016022	-0.13718	-0.085754	0.00885	0.077667	0.06134	-0.006104	0.01709	-0.00824	-0.026855	-0.24033	-0.062256	0.048676	-0.19134	-0.0383	0.028839	0.026703	-0.014038	0.57434	-0.005188	-0.048065	-0.082855	0.000916	-0.003967
44.527	0.01358	0.051422	0.077515	0.026093	0.065613	-0.11276	0.43091	0.004272	0.036011	-0.10925	-0.17639	0.002289	-0.10208	0.074921	-0.062714	0.006409	0.046692	-0.012054	-0.11948	0.005188	0.05722	-0.23636	0.004272	0.013123	0.02121	-0.023804	0.60074	-0.008698	0.022583	-0.06897	-0.00473	0.000153
44.528	0.021362	0.001678	0.070953	0.007324	0.064087	-0.074463	0.47913	-0.000763	0.039825	-0.06073	-0.16724	0.003204	-0.31693	-0.020447	-0.26245	0.005798	0.094299	-0.020142	-0.063019	-0.02655	0.1294	-0.25238	0.008698	-0.056152	0.023193	-0.028229	0.12299	-0.010223	0.041351	-0.040588	0.000763	-0.003815
44.529	0.016479	-0.033264	-0.10803	-0.000153	0.040894	0.006561	0.51254	0.007172	-0.070801	-0.033417	-0.021057	0.004425	-0.20416	-0.052795	-0.24689	0.009918	0.060883	-0.11749	-0.13367	-0.006714	0.015259	-0.27435	0.006409	-0.009155	0.028687	-0.032043	-0.33341	-0.00824	0.11124	-0.034637	0.002289	-0.010223
44.53	0.003204	-0.023193	-0.19531	-0.006714	0.015869	0.026093	0.47394	0.00473	-0.07782	-0.028229	-0.042419	0.003052	0.13504	0.002899	-0.17227	0.008087	-0.029907	-0.06424	-0.022888	0.11978	-0.12848	0.025787	-0.018921	-0.001678	0.007629	-0.013428	-0.31326	-0.004425	0.11261	-0.010223	0.001831	-0.006714
44.531	0.005341	-0.028076	-0.18662	0.010071	0.018768	-0.004425	0.44113	0.006714	-0.075531	0.026245	-0.10849	-0.000153	0.11292	0.028381	0.0177	0.018921	-0.06546	-0.055237	-0.06958	0.13397	-0.22827	0.22888	0.035706	-0.014191	0.004578	-0.009766	-0.30258	-0.006714	0.066986	0.014496	0.012512	-0.006561
44.532	0.006409	0.009155	-0.082245	0.015106	0.011902	0.006256	0.33112	0.007629	-0.029602	0.088196	-0.076752	0.006866	0.093384	-0.00412	0.27191	0.011597	-0.046692	-0.03479	0.054474	-0.003357	-0.14984	0.16388	0.058289	0.036011	0.003815	-0.043945	-0.14542	-0.003815	0.015411	0.014648	0.002594	-0.007019
